<svg width="20" height="26" viewBox="0 0 20 26" fill="none" xmlns="http://www.w3.org/2000/svg">
<path d="M6.12903 20.4794L6.12726 20.4777C3.78964 18.19 2.64527 16.3664 2.07698 14.8457C1.50986 13.3281 1.5 12.0735 1.5 10.8565C1.5 6.24879 5.30485 2.5 9.99133 2.5C14.6791 2.5 18.5 6.25003 18.5 10.8565C18.5 12.0735 18.4901 13.3281 17.923 14.8457C17.3547 16.3664 16.2104 18.19 13.8728 20.4777L13.8717 20.4787L9.99205 24.2977L6.12903 20.4794Z" fill="#4863A3" stroke="#7F92BF"/>
<path d="M11 15.435V17H9.5V15.56C8.71195 15.5045 7.96854 15.1735 7.4 14.625L8.09 13.855C8.58701 14.3057 9.23404 14.5553 9.905 14.555C10.655 14.555 11.195 14.19 11.195 13.505C11.195 12.915 10.9 12.65 9.8 12.315C8.325 11.86 7.685 11.27 7.685 10.2C7.685 9.13 8.425 8.5 9.5 8.32V7H11V8.375C11.522 8.49747 12.0029 8.75429 12.395 9.12L11.735 9.885C11.3013 9.49877 10.7408 9.28526 10.16 9.285C9.525 9.285 9.07 9.57 9.07 10.12C9.07 10.67 9.345 10.85 10.515 11.22C11.685 11.59 12.6 12.115 12.6 13.435C12.6018 13.901 12.4441 14.3535 12.153 14.7174C11.8619 15.0813 11.455 15.3345 11 15.435Z" fill="#CCCCCC"/>
</svg>
