<svg width="20" height="26" viewBox="0 0 20 26" fill="none" xmlns="http://www.w3.org/2000/svg">
<path d="M6.12903 20.4794L6.12726 20.4777C3.78964 18.19 2.64527 16.3664 2.07698 14.8457C1.50986 13.3281 1.5 12.0735 1.5 10.8565C1.5 6.24879 5.30485 2.5 9.99133 2.5C14.6791 2.5 18.5 6.25003 18.5 10.8565C18.5 12.0735 18.4901 13.3281 17.923 14.8457C17.3547 16.3664 16.2104 18.19 13.8728 20.4777L13.8717 20.4787L9.99205 24.2977L6.12903 20.4794Z" fill="#775650" stroke="#A08984"/>
<path d="M11.345 9.69018C10.3941 9.6924 9.48212 10.0676 8.805 10.7352C8.89755 10.9244 9.00106 11.108 9.115 11.2852C9.54696 11.867 9.80057 12.5619 9.845 13.2852C9.74414 14.3136 9.55171 15.331 9.27 16.3252C9.87488 16.76 10.6001 16.9959 11.345 17.0002C12.3144 17.0002 13.244 16.6151 13.9295 15.9297C14.6149 15.2442 15 14.3145 15 13.3452C15 12.3758 14.6149 11.4462 13.9295 10.7607C13.244 10.0753 12.3144 9.69018 11.345 9.69018V9.69018ZM11.565 12.1902C11.5575 12.1105 11.5668 12.0301 11.5922 11.9543C11.6176 11.8784 11.6585 11.8086 11.7124 11.7494C11.7663 11.6903 11.8319 11.643 11.9051 11.6107C11.9783 11.5783 12.0575 11.5616 12.1375 11.5616C12.2175 11.5616 12.2967 11.5783 12.3699 11.6107C12.4431 11.643 12.5087 11.6903 12.5626 11.7494C12.6165 11.8086 12.6574 11.8784 12.6828 11.9543C12.7082 12.0301 12.7175 12.1105 12.71 12.1902C12.7175 12.2699 12.7082 12.3502 12.6828 12.4261C12.6574 12.502 12.6165 12.5718 12.5626 12.6309C12.5087 12.6901 12.4431 12.7374 12.3699 12.7697C12.2967 12.802 12.2175 12.8187 12.1375 12.8187C12.0575 12.8187 11.9783 12.802 11.9051 12.7697C11.8319 12.7374 11.7663 12.6901 11.7124 12.6309C11.6585 12.5718 11.6176 12.502 11.5922 12.4261C11.5668 12.3502 11.5575 12.2699 11.565 12.1902V12.1902ZM12.525 14.3052C12.4097 14.3072 12.2964 14.2747 12.1996 14.212C12.1028 14.1492 12.0269 14.0591 11.9816 13.953C11.9363 13.8469 11.9237 13.7297 11.9453 13.6164C11.967 13.5031 12.0219 13.3989 12.1031 13.3169C12.1843 13.235 12.2881 13.1792 12.4012 13.1565C12.5143 13.1339 12.6316 13.1455 12.7381 13.1899C12.8446 13.2342 12.9354 13.3093 12.999 13.4056C13.0625 13.5018 13.096 13.6148 13.095 13.7302C13.0957 13.8057 13.0814 13.8806 13.0532 13.9506C13.0249 14.0206 12.9831 14.0844 12.9301 14.1382C12.8772 14.1921 12.8142 14.235 12.7447 14.2645C12.6752 14.294 12.6005 14.3095 12.525 14.3102V14.3052ZM13.685 13.1502C13.6097 13.1502 13.5352 13.1353 13.4657 13.1063C13.3962 13.0774 13.3332 13.0349 13.2802 12.9815C13.2272 12.928 13.1853 12.8646 13.1569 12.7948C13.1286 12.7251 13.1143 12.6505 13.115 12.5752C13.115 12.4612 13.1489 12.3499 13.2123 12.2552C13.2757 12.1606 13.3658 12.0869 13.4711 12.0435C13.5765 12.0001 13.6924 11.989 13.804 12.0116C13.9157 12.0342 14.0181 12.0895 14.0984 12.1704C14.1786 12.2513 14.2329 12.3542 14.2546 12.4661C14.2762 12.578 14.2641 12.6937 14.2198 12.7987C14.1755 12.9037 14.101 12.9931 14.0058 13.0557C13.9106 13.1183 13.7989 13.1512 13.685 13.1502ZM7.685 10.3302C7.685 11.4402 8.84 12.1802 8.84 13.2902C8.69152 14.4123 8.46768 15.5231 8.17 16.6152C8.14262 16.7261 8.07808 16.8243 7.9871 16.8935C7.89613 16.9626 7.78422 16.9985 7.67 16.9952H6.17C6.05578 16.9985 5.94387 16.9626 5.8529 16.8935C5.76192 16.8243 5.69738 16.7261 5.67 16.6152C5.37035 15.5253 5.14648 14.416 5 13.2952C5 12.1852 6.155 11.4452 6.155 10.3352C6.155 10.3352 6.155 10.0252 6.125 9.83518L5.795 8.33518C5.78735 8.25871 5.78735 8.18166 5.795 8.10518C5.8028 7.81025 5.92513 7.52995 6.13606 7.32368C6.347 7.11741 6.62997 7.00138 6.925 7.00018C7.22518 6.99482 7.51527 7.10861 7.73174 7.31665C7.94821 7.52469 8.07343 7.81002 8.08 8.11018C8.08 8.20494 8.06653 8.29921 8.04 8.39018L7.72 9.84018C7.7 10.0252 7.69 10.3352 7.69 10.3352L7.685 10.3302Z" fill="#CCCCCC"/>
</svg>
