<svg width="20" height="26" viewBox="0 0 20 26" fill="none" xmlns="http://www.w3.org/2000/svg">
<path d="M6.12903 20.4794L6.12726 20.4777C3.78964 18.19 2.64527 16.3664 2.07698 14.8457C1.50986 13.3281 1.5 12.0735 1.5 10.8565C1.5 6.24879 5.30485 2.5 9.99133 2.5C14.6791 2.5 18.5 6.25003 18.5 10.8565C18.5 12.0735 18.4901 13.3281 17.923 14.8457C17.3547 16.3664 16.2104 18.19 13.8728 20.4777L13.8717 20.4787L9.99205 24.2977L6.12903 20.4794Z" fill="#0686D0" stroke="#51AADE"/>
<path d="M13.88 12.5L13.38 11.35C13.2743 11.1009 13.0984 10.8879 12.8738 10.737C12.6492 10.5861 12.3856 10.5037 12.115 10.5H7.885C7.61614 10.5056 7.35464 10.5889 7.13198 10.7397C6.90933 10.8905 6.735 11.1024 6.63 11.35L6.13 12.5H5.25C5.17413 12.5594 5.11277 12.6353 5.07057 12.7219C5.02837 12.8085 5.00644 12.9036 5.00644 13C5.00644 13.0964 5.02837 13.1915 5.07057 13.2781C5.11277 13.3647 5.17413 13.4406 5.25 13.5H5.5V16.5C5.5 16.6326 5.55268 16.7598 5.64645 16.8536C5.74021 16.9473 5.86739 17 6 17H7.5C7.63261 17 7.75978 16.9473 7.85355 16.8536C7.94732 16.7598 8 16.6326 8 16.5V16H12V16.5C12 16.6326 12.0527 16.7598 12.1464 16.8536C12.2402 16.9473 12.3674 17 12.5 17H14C14.1326 17 14.2598 16.9473 14.3536 16.8536C14.4473 16.7598 14.5 16.6326 14.5 16.5V13.5H14.75C14.8267 13.4412 14.8889 13.3655 14.9317 13.2788C14.9745 13.1921 14.9967 13.0967 14.9967 13C14.9967 12.9033 14.9745 12.8079 14.9317 12.7212C14.8889 12.6345 14.8267 12.5588 14.75 12.5H13.88ZM7.545 11.755C7.57147 11.6845 7.61754 11.6231 7.67778 11.5779C7.73802 11.5327 7.80992 11.5057 7.885 11.5H12.115C12.1901 11.5057 12.262 11.5327 12.3222 11.5779C12.3825 11.6231 12.4285 11.6845 12.455 11.755L13 13H7L7.545 11.755ZM8 15H6.75C6.67238 14.9418 6.60937 14.8663 6.56598 14.7795C6.52259 14.6927 6.5 14.597 6.5 14.5C6.5 14.403 6.52259 14.3073 6.56598 14.2205C6.60937 14.1337 6.67238 14.0582 6.75 14H8V15ZM13.25 15H12V14H13.25C13.3276 14.0582 13.3906 14.1337 13.434 14.2205C13.4774 14.3073 13.5 14.403 13.5 14.5C13.5 14.597 13.4774 14.6927 13.434 14.7795C13.3906 14.8663 13.3276 14.9418 13.25 15ZM12 9H13.5V9.25C13.5 9.38261 13.4473 9.50979 13.3536 9.60355C13.2598 9.69732 13.1326 9.75 13 9.75H12V9ZM11.5 10H9.5C9.23478 10 8.98043 9.89464 8.79289 9.70711C8.60536 9.51957 8.5 9.26522 8.5 9H6.5C6.42238 8.94178 6.35937 8.86629 6.31598 8.77951C6.27259 8.69272 6.25 8.59703 6.25 8.5C6.25 8.40297 6.27259 8.30728 6.31598 8.22049C6.35937 8.13371 6.42238 8.05822 6.5 8H8.5C8.5 7.73478 8.60536 7.48043 8.79289 7.29289C8.98043 7.10536 9.23478 7 9.5 7H11.5V10ZM13 7.255C13.1326 7.255 13.2598 7.30768 13.3536 7.40145C13.4473 7.49521 13.5 7.62239 13.5 7.755V8H12V7.25L13 7.255Z" fill="#CCCCCC"/>
</svg>
