<svg width="20" height="26" viewBox="0 0 20 26" fill="none" xmlns="http://www.w3.org/2000/svg">
<path d="M6.12903 20.4794L6.12726 20.4777C3.78964 18.19 2.64527 16.3664 2.07698 14.8457C1.50986 13.3281 1.5 12.0735 1.5 10.8565C1.5 6.24879 5.30485 2.5 9.99133 2.5C14.6791 2.5 18.5 6.25003 18.5 10.8565C18.5 12.0735 18.4901 13.3281 17.923 14.8457C17.3547 16.3664 16.2104 18.19 13.8728 20.4777L13.8717 20.4787L9.99205 24.2977L6.12903 20.4794Z" fill="#BA4A82" stroke="#CF80A7"/>
<path d="M11.125 11.5C11.5435 11.4999 11.9537 11.383 12.3094 11.1626C12.6651 10.9422 12.9523 10.627 13.1388 10.2523C13.3252 9.87761 13.4034 9.45837 13.3647 9.04168C13.3259 8.625 13.1717 8.22737 12.9194 7.89349C12.6671 7.55962 12.3267 7.30272 11.9364 7.15167C11.5462 7.00063 11.1215 6.96142 10.7102 7.03845C10.2988 7.11548 9.91712 7.30571 9.60795 7.58774C9.29878 7.86978 9.0744 8.23245 8.96001 8.635C8.78697 8.35965 8.54511 8.13418 8.25831 7.98086C7.9715 7.82754 7.64967 7.75166 7.32458 7.76073C6.9995 7.76979 6.6824 7.86348 6.40458 8.03254C6.12676 8.2016 5.89784 8.44019 5.74041 8.72476C5.58298 9.00933 5.50248 9.33003 5.50687 9.65522C5.51125 9.9804 5.60037 10.2988 5.76542 10.579C5.93046 10.8593 6.16574 11.0916 6.44801 11.2531C6.73028 11.4146 7.0498 11.4997 7.37501 11.5H11.125ZM11.125 8.5C11.2733 8.5 11.4184 8.54399 11.5417 8.6264C11.665 8.70881 11.7612 8.82594 11.8179 8.96299C11.8747 9.10003 11.8895 9.25083 11.8606 9.39632C11.8317 9.5418 11.7602 9.67544 11.6553 9.78033C11.5505 9.88522 11.4168 9.95665 11.2713 9.98559C11.1258 10.0145 10.975 9.99968 10.838 9.94291C10.701 9.88614 10.5838 9.79002 10.5014 9.66668C10.419 9.54334 10.375 9.39834 10.375 9.25C10.375 9.05109 10.454 8.86032 10.5947 8.71967C10.7353 8.57902 10.9261 8.5 11.125 8.5ZM6.62501 9.625C6.62501 9.47666 6.669 9.33166 6.75141 9.20832C6.83382 9.08499 6.95095 8.98886 7.088 8.93209C7.22504 8.87533 7.37584 8.86047 7.52133 8.88941C7.66681 8.91835 7.80045 8.98978 7.90534 9.09467C8.01023 9.19956 8.08166 9.3332 8.1106 9.47868C8.13954 9.62417 8.12468 9.77497 8.06792 9.91201C8.01115 10.0491 7.91502 10.1662 7.79169 10.2486C7.66835 10.331 7.52335 10.375 7.37501 10.375C7.1761 10.375 6.98533 10.296 6.84468 10.1553C6.70403 10.0147 6.62501 9.82391 6.62501 9.625ZM14.5 13V16.5H13.5L12 15.5V16.5C12 16.6326 11.9473 16.7598 11.8536 16.8536C11.7598 16.9473 11.6326 17 11.5 17H7.00001C6.8674 17 6.74022 16.9473 6.64646 16.8536C6.55269 16.7598 6.50001 16.6326 6.50001 16.5V13C6.50001 12.8674 6.55269 12.7402 6.64646 12.6464C6.74022 12.5527 6.8674 12.5 7.00001 12.5H11.5C11.6326 12.5 11.7598 12.5527 11.8536 12.6464C11.9473 12.7402 12 12.8674 12 13V14L13.5 13H14.5Z" fill="#CCCCCC"/>
</svg>
