<svg width="20" height="26" viewBox="0 0 20 26" fill="none" xmlns="http://www.w3.org/2000/svg">
<path d="M6.12903 20.4794L6.12726 20.4777C3.78964 18.19 2.64527 16.3664 2.07698 14.8457C1.50986 13.3281 1.5 12.0735 1.5 10.8565C1.5 6.24879 5.30485 2.5 9.99133 2.5C14.6791 2.5 18.5 6.25003 18.5 10.8565C18.5 12.0735 18.4901 13.3281 17.923 14.8457C17.3547 16.3664 16.2104 18.19 13.8728 20.4777L13.8717 20.4787L9.99205 24.2977L6.12903 20.4794Z" fill="#775650" stroke="#A08984"/>
<path d="M14.86 11.5009L14.155 10.8009L15.04 9.91594L14 8.85594L14.5 8.32594L13.8 7.61594L13.27 8.15094L12.21 7.08594L11.325 7.97094L10.62 7.26594C10.5735 7.21907 10.5182 7.18188 10.4573 7.15649C10.3963 7.13111 10.331 7.11804 10.265 7.11804C10.199 7.11804 10.1336 7.13111 10.0727 7.15649C10.0118 7.18188 9.95647 7.21907 9.90998 7.26594L9.02998 8.15094C8.93686 8.24462 8.88459 8.37134 8.88459 8.50344C8.88459 8.63553 8.93686 8.76226 9.02998 8.85594L10.795 10.6209L8.49998 12.9209L6.72998 11.1559C6.6835 11.1091 6.6282 11.0719 6.56727 11.0465C6.50634 11.0211 6.44099 11.008 6.37498 11.008C6.30898 11.008 6.24363 11.0211 6.1827 11.0465C6.12177 11.0719 6.06647 11.1091 6.01998 11.1559L5.31498 11.8609C5.22186 11.9546 5.16959 12.0813 5.16959 12.2134C5.16959 12.3455 5.22186 12.4723 5.31498 12.5659L5.99998 13.2759L5.13998 14.1609L6.19998 15.2209L5.49998 15.9259L6.19998 16.6359L6.90498 15.9259L7.96498 17.0009L8.84998 16.1059L9.55998 16.8109C9.65367 16.9041 9.78039 16.9563 9.91248 16.9563C10.0446 16.9563 10.1713 16.9041 10.265 16.8109L10.97 16.1059C11.0168 16.0595 11.054 16.0042 11.0794 15.9432C11.1048 15.8823 11.1179 15.8169 11.1179 15.7509C11.1179 15.6849 11.1048 15.6196 11.0794 15.5586C11.054 15.4977 11.0168 15.4424 10.97 15.3959L9.20498 13.6309L11.505 11.3309L13.27 13.0959C13.3637 13.1891 13.4904 13.2413 13.6225 13.2413C13.7546 13.2413 13.8813 13.1891 13.975 13.0959L14.86 12.2159C14.9076 12.1694 14.9454 12.1138 14.9713 12.0524C14.9971 11.991 15.0104 11.925 15.0104 11.8584C15.0104 11.7918 14.9971 11.7259 14.9713 11.6645C14.9454 11.6031 14.9076 11.5475 14.86 11.5009Z" fill="#CCCCCC"/>
</svg>
