<svg width="20" height="26" viewBox="0 0 20 26" fill="none" xmlns="http://www.w3.org/2000/svg">
<path d="M1.5 12C1.5 7.30558 5.30558 3.5 10 3.5C14.6944 3.5 18.5 7.30558 18.5 12C18.5 16.6944 14.6944 20.5 10 20.5C5.30558 20.5 1.5 16.6944 1.5 12Z" fill="#0686D0" stroke="#51AADE"/>
<path d="M13.95 12.155L13.5 8.41C13.477 8.02798 13.3089 7.66918 13.0301 7.40706C12.7512 7.14494 12.3827 6.99931 12 7H8.00001C7.61729 6.99931 7.24879 7.14494 6.96994 7.40706C6.69108 7.66918 6.52297 8.02798 6.50001 8.41L6.05001 12.155C6.00881 12.5469 6.06196 12.9429 6.20501 13.31L6.97001 15.05C7.04781 15.2531 7.18462 15.4284 7.36283 15.5531C7.54104 15.6779 7.7525 15.7464 7.97001 15.75L8.28001 14.25C8.33632 14.0317 8.46475 13.8388 8.64445 13.7027C8.82416 13.5665 9.0446 13.4951 9.27001 13.5H10.73C10.9542 13.4991 11.1722 13.5735 11.349 13.7113C11.5258 13.8491 11.6512 14.0424 11.705 14.26L11.985 15.76C12.2025 15.7564 12.414 15.6879 12.5922 15.5631C12.7704 15.4384 12.9072 15.2631 12.985 15.06L13.775 13.32C13.9264 12.9515 13.9865 12.5518 13.95 12.155ZM7.95001 8H12.06C12.209 8.00331 12.3515 8.06198 12.4596 8.16458C12.5678 8.26717 12.6339 8.40635 12.645 8.555C12.645 8.555 12.695 9.66 12.725 10.5H7.26001C7.29501 9.66 7.36001 8.555 7.36001 8.555C7.37124 8.40551 7.43802 8.26563 7.54722 8.16292C7.65641 8.0602 7.80011 8.00208 7.95001 8V8ZM8.50001 12.75H7.50001C7.44268 12.7501 7.38595 12.7385 7.33329 12.7158C7.28063 12.6932 7.23317 12.66 7.19382 12.6183C7.15447 12.5766 7.12408 12.5273 7.10451 12.4734C7.08493 12.4195 7.07659 12.3622 7.08001 12.305L7.10501 11.895C7.11146 11.7863 7.15991 11.6843 7.24014 11.6106C7.32037 11.5369 7.4261 11.4972 7.53501 11.5H8.50001V12.75ZM12.5 12.75H11.5V11.5H12.465C12.5722 11.4998 12.6754 11.5406 12.7535 11.6141C12.8316 11.6875 12.8786 11.788 12.885 11.895L12.91 12.305C12.9134 12.3614 12.9053 12.4179 12.8864 12.4711C12.8674 12.5243 12.8379 12.5731 12.7996 12.6147C12.7614 12.6562 12.7151 12.6896 12.6636 12.7129C12.6121 12.7361 12.5565 12.7488 12.5 12.75ZM10.855 14.88L11.235 17H8.73501L9.12501 14.885C9.15238 14.7741 9.21693 14.6759 9.3079 14.6067C9.39888 14.5376 9.51079 14.5017 9.62501 14.505H10.34C10.4544 14.5002 10.5669 14.5349 10.6589 14.6031C10.7508 14.6714 10.8165 14.7691 10.845 14.88H10.855Z" fill="#CCCCCC"/>
</svg>
