<svg width="20" height="26" viewBox="0 0 20 26" fill="none" xmlns="http://www.w3.org/2000/svg">
<path d="M6.12903 20.4794L6.12726 20.4777C3.78964 18.19 2.64527 16.3664 2.07698 14.8457C1.50986 13.3281 1.5 12.0735 1.5 10.8565C1.5 6.24879 5.30485 2.5 9.99133 2.5C14.6791 2.5 18.5 6.25003 18.5 10.8565C18.5 12.0735 18.4901 13.3281 17.923 14.8457C17.3547 16.3664 16.2104 18.19 13.8728 20.4777L13.8717 20.4787L9.99205 24.2977L6.12903 20.4794Z" fill="#215F4B" stroke="#648F81"/>
<path d="M12.1 7.8L10.45 8.325L8.95 6.75L4.75 12.45V17.25H6.8125L8.7625 15.75C9.05078 15.5127 9.06206 15.0298 8.8 14.7719L7.75 13.8C7.12539 13.1987 7.49016 12.1112 8.35 12L10.975 11.7L11.3125 12.0375L9.02529 12.5221C8.6699 12.5965 8.6182 13.0826 8.95 13.23L11.9077 14.5287C12.4095 14.7608 12.7029 15.2916 12.6325 15.84L12.475 17.25H15.25V12.525L12.1 7.8ZM9.055 8.3775L10.1575 9.525L11.635 9.0375L12.5783 10.5H7.54419L9.055 8.3775Z" fill="#CCCCCC"/>
</svg>
