<svg width="20" height="26" viewBox="0 0 20 26" fill="none" xmlns="http://www.w3.org/2000/svg">
<path d="M6.12903 20.4794L6.12726 20.4777C3.78964 18.19 2.64527 16.3664 2.07698 14.8457C1.50986 13.3281 1.5 12.0735 1.5 10.8565C1.5 6.24879 5.30485 2.5 9.99133 2.5C14.6791 2.5 18.5 6.25003 18.5 10.8565C18.5 12.0735 18.4901 13.3281 17.923 14.8457C17.3547 16.3664 16.2104 18.19 13.8728 20.4777L13.8717 20.4787L9.99205 24.2977L6.12903 20.4794Z" fill="#0686D0" stroke="#51AADE"/>
<path d="M9.75 15.0002C10.3433 15.0002 10.9234 14.8242 11.4167 14.4946C11.9101 14.1649 12.2946 13.6964 12.5216 13.1482C12.7487 12.6001 12.8081 11.9969 12.6924 11.4149C12.5766 10.833 12.2909 10.2984 11.8713 9.87886C11.4518 9.45931 10.9172 9.17358 10.3353 9.05783C9.75332 8.94207 9.15012 9.00148 8.60195 9.22854C8.05377 9.45561 7.58523 9.84012 7.25559 10.3335C6.92594 10.8268 6.75 11.4068 6.75 12.0002C6.75 12.7958 7.06607 13.5589 7.62868 14.1215C8.19129 14.6841 8.95435 15.0002 9.75 15.0002ZM9.5 10.0002H10.5V14.0002H9.5V11.2502H8.5L9.5 10.0002ZM15 15.0002V15.5002C15 15.898 14.842 16.2795 14.5607 16.5608C14.2794 16.8421 13.8978 17.0002 13.5 17.0002H6.5C6.10217 17.0002 5.72064 16.8421 5.43934 16.5608C5.15803 16.2795 5 15.898 5 15.5002V15.0002C4.99748 14.6309 5.13127 14.2737 5.37575 13.9969C5.62024 13.7201 5.95823 13.5433 6.325 13.5002C6.48224 13.8663 6.69844 14.2041 6.965 14.5002H6V16.0002H14V14.5002H12.535C12.8043 14.2042 13.0238 13.8665 13.185 13.5002H13.5C13.8978 13.5002 14.2794 13.6582 14.5607 13.9395C14.842 14.2208 15 14.6024 15 15.0002ZM9.75 8.25018C9.6534 8.24507 9.5566 8.24507 9.46 8.25018C9.76665 7.8173 10.2031 7.49318 10.7061 7.32472C11.2091 7.15625 11.7527 7.15217 12.2582 7.31307C12.7637 7.47396 13.205 7.79149 13.5181 8.21972C13.8312 8.64795 14 9.16469 14 9.69518C13.9984 10.2697 13.7948 10.8255 13.425 11.2652C13.2551 10.4154 12.7962 9.65066 12.1262 9.10101C11.4563 8.55135 10.6166 8.25071 9.75 8.25018V8.25018Z" fill="#CCCCCC"/>
</svg>
