<svg width="20" height="26" viewBox="0 0 20 26" fill="none" xmlns="http://www.w3.org/2000/svg">
<path d="M1.5 12C1.5 7.30558 5.30558 3.5 10 3.5C14.6944 3.5 18.5 7.30558 18.5 12C18.5 16.6944 14.6944 20.5 10 20.5C5.30558 20.5 1.5 16.6944 1.5 12Z" fill="#0686D0" stroke="#51AADE"/>
<path d="M14.565 9.39C14.5372 9.01154 14.3669 8.65769 14.0886 8.39976C13.8102 8.14183 13.4445 7.99898 13.065 8H12.5C12.2671 7.68951 11.9652 7.4375 11.618 7.26393C11.2709 7.09036 10.8881 7 10.5 7H9.5C9.11188 7 8.7291 7.09036 8.38196 7.26393C8.03482 7.4375 7.73287 7.68951 7.5 8H6.93C6.55052 7.99898 6.18475 8.14183 5.90641 8.39976C5.62806 8.65769 5.45782 9.01154 5.43 9.39L5.21 12.315C5.17254 12.8903 5.33505 13.4608 5.67 13.93L5.835 15.25C5.89621 15.736 6.13366 16.1826 6.50231 16.5052C6.87096 16.8278 7.34517 17.0038 7.835 17H12.185C12.6748 17.0038 13.149 16.8278 13.5177 16.5052C13.8863 16.1826 14.1238 15.736 14.185 15.25L14.35 13.93C14.6849 13.4608 14.8475 12.8903 14.81 12.315L14.565 9.39ZM13.17 15.125C13.1394 15.368 13.0207 15.5913 12.8363 15.7526C12.652 15.9139 12.4149 16.0019 12.17 16H7.825C7.58008 16.0019 7.34298 15.9139 7.15865 15.7526C6.97433 15.5913 6.85561 15.368 6.825 15.125L6.79 14.82C7.08303 14.9359 7.39489 14.9969 7.71 15H12.29C12.6034 14.9963 12.9135 14.9353 13.205 14.82L13.17 15.125ZM13.39 13.5C13.2513 13.6551 13.0819 13.7796 12.8926 13.8657C12.7032 13.9517 12.498 13.9975 12.29 14H7.71C7.50341 14.0006 7.29893 13.9584 7.10938 13.8763C6.91983 13.7941 6.7493 13.6737 6.60847 13.5225C6.46764 13.3714 6.35956 13.1927 6.29099 12.9979C6.22242 12.803 6.19485 12.596 6.21 12.39L6.425 9.465C6.43387 9.33855 6.49044 9.22019 6.58326 9.13386C6.67609 9.04754 6.79824 8.99969 6.925 9H7.05C7.01802 9.16478 7.00129 9.33215 7 9.5V10H8V9.5C8 9.10218 8.15803 8.72064 8.43934 8.43934C8.72064 8.15804 9.10217 8 9.5 8H10.5C10.8978 8 11.2794 8.15804 11.5607 8.43934C11.842 8.72064 12 9.10218 12 9.5V10H13V9.5C12.9987 9.33215 12.982 9.16478 12.95 9H13.07C13.1968 8.99969 13.3189 9.04754 13.4117 9.13386C13.5046 9.22019 13.5611 9.33855 13.57 9.465L13.785 12.39C13.7975 12.5921 13.7689 12.7946 13.701 12.9854C13.6332 13.1762 13.5273 13.3512 13.39 13.5V13.5ZM9.5 12H8V11H9.5V12ZM12 12H10.5V11H12V12ZM11 10H9V9H11V10Z" fill="#CCCCCC"/>
</svg>
