<svg width="20" height="26" viewBox="0 0 20 26" fill="none" xmlns="http://www.w3.org/2000/svg">
<path d="M6.12903 20.4794L6.12726 20.4777C3.78964 18.19 2.64527 16.3664 2.07698 14.8457C1.50986 13.3281 1.5 12.0735 1.5 10.8565C1.5 6.24879 5.30485 2.5 9.99133 2.5C14.6791 2.5 18.5 6.25003 18.5 10.8565C18.5 12.0735 18.4901 13.3281 17.923 14.8457C17.3547 16.3664 16.2104 18.19 13.8728 20.4777L13.8717 20.4787L9.99205 24.2977L6.12903 20.4794Z" fill="#4863A3" stroke="#7F92BF"/>
<path d="M13.2325 7.85805V7.99805H11.4975V8.99805H13.2325V9.14305C13.2312 9.37027 13.14 9.58773 12.9788 9.74793C12.8177 9.90813 12.5997 9.99805 12.3725 9.99805H10.7325L10.3575 9.24805H6.7475C6.64893 9.1496 6.57073 9.03269 6.51738 8.904C6.46403 8.77531 6.43656 8.63736 6.43656 8.49805C6.43656 8.35873 6.46403 8.22079 6.51738 8.0921C6.57073 7.96341 6.64893 7.84649 6.7475 7.74805H10.3625L10.7325 6.99805H12.3775C12.6047 6.99937 12.8222 7.09056 12.9824 7.2517C13.1426 7.41283 13.2325 7.63082 13.2325 7.85805V7.85805ZM14.7325 12.498C14.8101 12.5563 14.8731 12.6318 14.9165 12.7185C14.9599 12.8053 14.9825 12.901 14.9825 12.998C14.9825 13.0951 14.9599 13.1908 14.9165 13.2776C14.8731 13.3643 14.8101 13.4398 14.7325 13.498H14.4975V16.498C14.4975 16.6307 14.4448 16.7578 14.3511 16.8516C14.2573 16.9454 14.1301 16.998 13.9975 16.998H12.4975C12.3649 16.998 12.2377 16.9454 12.1439 16.8516C12.0502 16.7578 11.9975 16.6307 11.9975 16.498V15.998H7.9975V16.498C7.9975 16.6307 7.94482 16.7578 7.85105 16.8516C7.75728 16.9454 7.63011 16.998 7.4975 16.998H5.9975C5.86489 16.998 5.73771 16.9454 5.64394 16.8516C5.55018 16.7578 5.4975 16.6307 5.4975 16.498V13.498H5.2475C5.16988 13.4398 5.10687 13.3643 5.06348 13.2776C5.02009 13.1908 4.9975 13.0951 4.9975 12.998C4.9975 12.901 5.02009 12.8053 5.06348 12.7185C5.10687 12.6318 5.16988 12.5563 5.2475 12.498H6.1175L6.6175 11.348C6.72319 11.0989 6.89905 10.886 7.12366 10.735C7.34827 10.5841 7.61192 10.5018 7.8825 10.498H12.1125C12.3814 10.5037 12.6429 10.5869 12.8655 10.7377C13.0882 10.8885 13.2625 11.1005 13.3675 11.348L13.8675 12.498H14.7325ZM6.9975 12.998H12.9975L12.4425 11.753C12.416 11.6826 12.37 11.6211 12.3097 11.5759C12.2495 11.5307 12.1776 11.5037 12.1025 11.498H7.8825C7.80741 11.5037 7.73552 11.5307 7.67528 11.5759C7.61504 11.6211 7.56897 11.6826 7.5425 11.753L6.9975 12.998ZM7.9975 13.998H6.7475C6.66988 14.0563 6.60687 14.1318 6.56348 14.2185C6.52009 14.3053 6.4975 14.401 6.4975 14.498C6.4975 14.5951 6.52009 14.6908 6.56348 14.7776C6.60687 14.8643 6.66988 14.9398 6.7475 14.998H7.9975V13.998ZM13.2475 13.998H11.9975V14.998H13.2475C13.3251 14.9398 13.3881 14.8643 13.4315 14.7776C13.4749 14.6908 13.4975 14.5951 13.4975 14.498C13.4975 14.401 13.4749 14.3053 13.4315 14.2185C13.3881 14.1318 13.3251 14.0563 13.2475 13.998V13.998Z" fill="#CCCCCC"/>
</svg>
