<svg width="20" height="26" viewBox="0 0 20 26" fill="none" xmlns="http://www.w3.org/2000/svg">
<path d="M6.12903 20.4794L6.12726 20.4777C3.78964 18.19 2.64527 16.3664 2.07698 14.8457C1.50986 13.3281 1.5 12.0735 1.5 10.8565C1.5 6.24879 5.30485 2.5 9.99133 2.5C14.6791 2.5 18.5 6.25003 18.5 10.8565C18.5 12.0735 18.4901 13.3281 17.923 14.8457C17.3547 16.3664 16.2104 18.19 13.8728 20.4777L13.8717 20.4787L9.99205 24.2977L6.12903 20.4794Z" fill="#4863A3" stroke="#7F92BF"/>
<path d="M6.55 9.75H8.725L9.1 9H10.45L10.975 8.475L11.5 9H12.7L13.45 8.25L12.7 7.5H9.1L8.725 6.75H6.55C6.1 6.75 5.725 7.12499 5.725 7.57499V8.85C5.725 9.375 6.1 9.75 6.55 9.75ZM6.7 7.8H8.2V8.775H6.7V7.8ZM13.6 12.3L13.075 11.175C12.85 10.65 12.325 10.35 11.8 10.35H7.6C7.075 10.35 6.55 10.65 6.325 11.175L5.8 12.3H4.975C4.675 12.6 4.675 12.975 4.975 13.275H5.2V16.275C5.2 16.575 5.425 16.8 5.725 16.8H7.225C7.525 16.8 7.75 16.575 7.75 16.275V15.75H11.725V16.275C11.725 16.575 11.95 16.8 12.25 16.8H13.75C14.05 16.8 14.275 16.575 14.275 16.275V13.275H14.5C14.8 12.975 14.8 12.6 14.5 12.3H13.6ZM7.225 11.55C7.3 11.4 7.45 11.325 7.6 11.325H11.8C11.95 11.325 12.1 11.4 12.175 11.55L12.7 12.825H6.7L7.225 11.55ZM7.675 14.775H6.475C6.175 14.475 6.175 14.1 6.475 13.8H7.75V14.775H7.675ZM12.925 14.775H11.65V13.8H12.925C13.3 14.1 13.3 14.475 12.925 14.775Z" fill="#CCCCCC"/>
</svg>
