<svg width="20" height="26" viewBox="0 0 20 26" fill="none" xmlns="http://www.w3.org/2000/svg">
<path d="M6.12903 20.4794L6.12726 20.4777C3.78964 18.19 2.64527 16.3664 2.07698 14.8457C1.50986 13.3281 1.5 12.0735 1.5 10.8565C1.5 6.24879 5.30485 2.5 9.99133 2.5C14.6791 2.5 18.5 6.25003 18.5 10.8565C18.5 12.0735 18.4901 13.3281 17.923 14.8457C17.3547 16.3664 16.2104 18.19 13.8728 20.4777L13.8717 20.4787L9.99205 24.2977L6.12903 20.4794Z" fill="#775650" stroke="#A08984"/>
<path d="M13.5 7.9993C13.5 7.8667 13.4473 7.73952 13.3536 7.64575C13.2598 7.55198 13.1326 7.4993 13 7.4993H11.75V7.2493C10.6074 6.91429 9.39262 6.91429 8.25 7.2493V7.4993H7C6.86739 7.4993 6.74021 7.55198 6.64645 7.64575C6.55268 7.73952 6.5 7.8667 6.5 7.9993L6.25 14.9993H13.75L13.5 7.9993ZM12 11.9993H8V10.9993H12V11.9993ZM12 9.9993H8V8.9993H12V9.9993ZM15 15.9993V16.9993H5V15.9993H15Z" fill="#CCCCCC"/>
</svg>
