<svg width="20" height="26" viewBox="0 0 20 26" fill="none" xmlns="http://www.w3.org/2000/svg">
<path d="M6.12903 20.4794L6.12726 20.4777C3.78964 18.19 2.64527 16.3664 2.07698 14.8457C1.50986 13.3281 1.5 12.0735 1.5 10.8565C1.5 6.24879 5.30485 2.5 9.99133 2.5C14.6791 2.5 18.5 6.25003 18.5 10.8565C18.5 12.0735 18.4901 13.3281 17.923 14.8457C17.3547 16.3664 16.2104 18.19 13.8728 20.4777L13.8717 20.4787L9.99205 24.2977L6.12903 20.4794Z" fill="#775650" stroke="#A08984"/>
<path d="M14 9C13.5343 8.37902 12.9303 7.875 12.2361 7.52786C11.5418 7.18073 10.7762 7 10 7C9.22377 7 8.45821 7.18073 7.76393 7.52786C7.06965 7.875 6.46573 8.37902 6 9V9C5.34762 9.86376 4.99635 10.9176 5 12C5 13.3261 5.52678 14.5979 6.46446 15.5355C7.40215 16.4732 8.67392 17 10 17C11.3261 17 12.5978 16.4732 13.5355 15.5355C14.4732 14.5979 15 13.3261 15 12C15.0036 10.9176 14.6524 9.86376 14 9V9ZM11.295 10L10 11.295L8.705 10H11.295ZM10.5 9V8.035C11.2938 8.1354 12.0392 8.47154 12.64 9H10.5ZM9.5 8.035V9H7.36C7.96076 8.47154 8.7062 8.1354 9.5 8.035ZM6.54 10H7.295L9.295 12L6.845 14.45C6.35491 13.8238 6.06387 13.0651 6.0095 12.2718C5.95513 11.4785 6.13992 10.6872 6.54 10V10ZM7.54 15.155L9.99 12.705L12.44 15.155C11.7406 15.7024 10.8781 15.9998 9.99 15.9998C9.10189 15.9998 8.23936 15.7024 7.54 15.155V15.155ZM13.155 14.45L10.705 12L12.705 10H13.46C13.8601 10.6872 14.0449 11.4785 13.9905 12.2718C13.9361 13.0651 13.6451 13.8238 13.155 14.45Z" fill="#CCCCCC"/>
</svg>
