<svg width="20" height="26" viewBox="0 0 20 26" fill="none" xmlns="http://www.w3.org/2000/svg">
<path d="M6.12903 20.4794L6.12726 20.4777C3.78964 18.19 2.64527 16.3664 2.07698 14.8457C1.50986 13.3281 1.5 12.0735 1.5 10.8565C1.5 6.24879 5.30485 2.5 9.99133 2.5C14.6791 2.5 18.5 6.25003 18.5 10.8565C18.5 12.0735 18.4901 13.3281 17.923 14.8457C17.3547 16.3664 16.2104 18.19 13.8728 20.4777L13.8717 20.4787L9.99205 24.2977L6.12903 20.4794Z" fill="#137D81" stroke="#5AA4A7"/>
<path d="M15 12.7504L13.75 10.7504L12.5 12.7504H13.25C13.25 14.3554 12.21 15.0904 10.705 15.2504L10.58 12.0004H12V11.0004H10.545L10.5 10.1604C10.8659 10.0381 11.1763 9.7897 11.3758 9.45953C11.5753 9.12937 11.6509 8.73901 11.5889 8.35826C11.527 7.97751 11.3316 7.6312 11.0378 7.38129C10.7439 7.13137 10.3708 6.99414 9.985 6.99414C9.59925 6.99414 9.22607 7.13137 8.93222 7.38129C8.63837 7.6312 8.44301 7.97751 8.38108 8.35826C8.31915 8.73901 8.39469 9.12937 8.59419 9.45953C8.79368 9.7897 9.10413 10.0381 9.47 10.1604L9.455 11.0004H8V12.0004H9.42L9.295 15.2504C7.795 15.0904 6.75 14.3554 6.75 12.7504H7.5L6.25 10.7504L5 12.7504H5.75V13.0004C5.75 14.7104 6.795 15.4354 8.295 16.0804C8.815 16.3054 10 17.0004 10 17.0004C10 17.0004 11.185 16.3054 11.705 16.0804C13.205 15.4354 14.25 14.7104 14.25 13.0004V12.7504H15ZM9.125 8.62537C9.125 8.45232 9.17632 8.28314 9.27246 8.13925C9.36861 7.99536 9.50527 7.88321 9.66515 7.81698C9.82504 7.75075 10.001 7.73342 10.1707 7.76719C10.3404 7.80095 10.4963 7.88428 10.6187 8.00666C10.7411 8.12903 10.8244 8.28494 10.8582 8.45467C10.8919 8.6244 10.8746 8.80034 10.8084 8.96022C10.7422 9.12011 10.63 9.25676 10.4861 9.35291C10.3422 9.44906 10.1731 9.50037 10 9.50037C9.76834 9.49906 9.54654 9.40645 9.38273 9.24264C9.21892 9.07883 9.12631 8.85703 9.125 8.62537Z" fill="#CCCCCC"/>
</svg>
