<svg width="20" height="26" viewBox="0 0 20 26" fill="none" xmlns="http://www.w3.org/2000/svg">
<path d="M1.5 12C1.5 7.30558 5.30558 3.5 10 3.5C14.6944 3.5 18.5 7.30558 18.5 12C18.5 16.6944 14.6944 20.5 10 20.5C5.30558 20.5 1.5 16.6944 1.5 12Z" fill="#0686D0" stroke="#51AADE"/>
<path d="M13.755 7.00003C13.6556 6.99933 13.5565 7.01109 13.46 7.03503L6.655 8.64503C6.32618 8.72274 6.03323 8.90919 5.8236 9.17417C5.61398 9.43916 5.49995 9.76715 5.5 10.105V15L15 12.75V8.25003C15 7.91937 14.869 7.60219 14.6357 7.36791C14.4023 7.13363 14.0857 7.00135 13.755 7.00003V7.00003ZM9.875 11.5L6.5 12.29V10.16C6.50076 10.017 6.55095 9.8786 6.64208 9.76834C6.73321 9.65808 6.85966 9.58271 7 9.55503L9.895 8.86503L9.875 11.5ZM14 10.5L10.625 11.305V8.68503L13.54 8.00003H13.63C13.7286 8.00134 13.8227 8.04143 13.8919 8.11162C13.9612 8.1818 14 8.27643 14 8.37503V10.5ZM5 16.94L15 14.57V13.82L5 16.19V16.94Z" fill="#CCCCCC"/>
</svg>
