<svg width="20" height="26" viewBox="0 0 20 26" fill="none" xmlns="http://www.w3.org/2000/svg">
<path d="M6.12903 20.4794L6.12726 20.4777C3.78964 18.19 2.64527 16.3664 2.07698 14.8457C1.50986 13.3281 1.5 12.0735 1.5 10.8565C1.5 6.24879 5.30485 2.5 9.99133 2.5C14.6791 2.5 18.5 6.25003 18.5 10.8565C18.5 12.0735 18.4901 13.3281 17.923 14.8457C17.3547 16.3664 16.2104 18.19 13.8728 20.4777L13.8717 20.4787L9.99205 24.2977L6.12903 20.4794Z" fill="#277C5E" stroke="#68A38E"/>
<path d="M8.99999 8H6.99999V7H8.99999V8ZM4.99999 17H7.99999V16H4.99999V17ZM12 17H15V16H12V17ZM13 7H11V8H13V7ZM15 12.255V15.5H12V13H7.99999V15.5H4.99999V12.255C4.99871 11.9232 5.08126 11.5964 5.23999 11.305L6.74999 8.5H8.99999V9H11V8.5H13.24L14.74 11.305C14.9057 11.5945 14.9952 11.9214 15 12.255V12.255ZM10.5 10H9.49999V12H10.5V10Z" fill="#CCCCCC"/>
</svg>
