<svg width="20" height="26" viewBox="0 0 20 26" fill="none" xmlns="http://www.w3.org/2000/svg">
<path d="M6.12903 20.4794L6.12726 20.4777C3.78964 18.19 2.64527 16.3664 2.07698 14.8457C1.50986 13.3281 1.5 12.0735 1.5 10.8565C1.5 6.24879 5.30485 2.5 9.99133 2.5C14.6791 2.5 18.5 6.25003 18.5 10.8565C18.5 12.0735 18.4901 13.3281 17.923 14.8457C17.3547 16.3664 16.2104 18.19 13.8728 20.4777L13.8717 20.4787L9.99205 24.2977L6.12903 20.4794Z" fill="#1659B1" stroke="#5C8BC8"/>
<path d="M15.025 10.2L10 8.43749L5.01249 10.2V8.77499L10 7L15.025 8.77499V10.2ZM12.7 12.785C12.7 14.41 11.54 15.15 9.92499 15.15H9.17499V17.025H7.5L7.52499 10.5H9.77499C11.58 10.5 12.7 11.25 12.7 12.785ZM10.975 12.785C10.975 12.1737 10.4613 11.6988 9.84999 11.7H9.17499V14.025H9.775C10.4368 14.025 10.9986 13.4533 10.975 12.785Z" fill="#CCCCCC"/>
</svg>
