<svg width="20" height="26" viewBox="0 0 20 26" fill="none" xmlns="http://www.w3.org/2000/svg">
<path d="M6.12903 20.4794L6.12726 20.4777C3.78964 18.19 2.64527 16.3664 2.07698 14.8457C1.50986 13.3281 1.5 12.0735 1.5 10.8565C1.5 6.24879 5.30485 2.5 9.99133 2.5C14.6791 2.5 18.5 6.25003 18.5 10.8565C18.5 12.0735 18.4901 13.3281 17.923 14.8457C17.3547 16.3664 16.2104 18.19 13.8728 20.4777L13.8717 20.4787L9.99205 24.2977L6.12903 20.4794Z" fill="#4863A3" stroke="#7F92BF"/>
<path d="M5 9.5V9H15V9.5C14.9982 9.58196 14.9763 9.66222 14.9362 9.73372C14.8961 9.80521 14.839 9.86575 14.77 9.91L10.27 12.72C10.194 12.7639 10.1078 12.787 10.02 12.787C9.93223 12.787 9.84601 12.7639 9.77 12.72L5.27 9.91C5.19354 9.87065 5.12851 9.81224 5.08122 9.74042C5.03392 9.6686 5.00595 9.58579 5 9.5V9.5ZM15 10.75L10.545 13.645C10.3828 13.7504 10.1935 13.8066 10 13.8066C9.80653 13.8066 9.61721 13.7504 9.455 13.645L5 10.75V15.07C4.99933 15.1267 5.00999 15.1829 5.03137 15.2353C5.05274 15.2878 5.08439 15.3355 5.12445 15.3756C5.16451 15.4156 5.21218 15.4473 5.26466 15.4686C5.31713 15.49 5.37334 15.5007 5.43 15.5H14.57C14.6267 15.5007 14.6829 15.49 14.7353 15.4686C14.7878 15.4473 14.8355 15.4156 14.8756 15.3756C14.9156 15.3355 14.9473 15.2878 14.9686 15.2353C14.99 15.1829 15.0007 15.1267 15 15.07V10.75Z" fill="#CCCCCC"/>
</svg>
