<svg width="20" height="26" viewBox="0 0 20 26" fill="none" xmlns="http://www.w3.org/2000/svg">
<path d="M6.12903 20.4794L6.12726 20.4777C3.78964 18.19 2.64527 16.3664 2.07698 14.8457C1.50986 13.3281 1.5 12.0735 1.5 10.8565C1.5 6.24879 5.30485 2.5 9.99133 2.5C14.6791 2.5 18.5 6.25003 18.5 10.8565C18.5 12.0735 18.4901 13.3281 17.923 14.8457C17.3547 16.3664 16.2104 18.19 13.8728 20.4777L13.8717 20.4787L9.99205 24.2977L6.12903 20.4794Z" fill="#BA4A82" stroke="#CF80A7"/>
<path d="M14.055 10.9996H6V15.9996L5.75 16.9996H13.25L13 15.9996V15.4996L14.195 15.3096C14.4252 15.2639 14.632 15.1387 14.7792 14.9558C14.9263 14.773 15.0045 14.5443 15 14.3096V11.9996C15.0004 11.7436 14.9026 11.4973 14.7268 11.3113C14.551 11.1252 14.3106 11.0137 14.055 10.9996ZM9 15.4996H8V11.9996H9V15.4996ZM11 15.4996H10V11.9996H11V15.4996ZM14 14.0946C14 14.1522 13.9801 14.2081 13.9437 14.2527C13.9072 14.2974 13.8565 14.3281 13.8 14.3396L13 14.4996V11.9996H13.75C13.8163 11.9996 13.8799 12.0259 13.9268 12.0728C13.9737 12.1197 14 12.1833 14 12.2496V14.0946ZM6.545 9.9996H5.545C5.53979 9.91635 5.53979 9.83286 5.545 9.7496C5.54485 9.29317 5.72304 8.85473 6.04155 8.52781C6.36007 8.20088 6.79372 8.01134 7.25 7.9996H7.75C7.92646 7.69885 8.17849 7.44946 8.48108 7.27617C8.78367 7.10289 9.12631 7.01172 9.475 7.01172C9.8237 7.01172 10.1663 7.10289 10.4689 7.27617C10.7715 7.44946 11.0235 7.69885 11.2 7.9996H11.75C12.2141 7.9996 12.6593 8.18398 12.9874 8.51217C13.3156 8.84036 13.5 9.28548 13.5 9.7496C13.5052 9.83286 13.5052 9.91635 13.5 9.9996H12.5C12.5151 9.91696 12.5151 9.83225 12.5 9.7496C12.5 9.55069 12.421 9.35993 12.2803 9.21927C12.1397 9.07862 11.9489 8.9996 11.75 8.9996H10.5C10.5 8.73439 10.3946 8.48003 10.2071 8.2925C10.0196 8.10496 9.76522 7.9996 9.5 7.9996C9.23479 7.9996 8.98043 8.10496 8.7929 8.2925C8.60536 8.48003 8.5 8.73439 8.5 8.9996H7.25C7.05109 8.9996 6.86032 9.07862 6.71967 9.21927C6.57902 9.35993 6.5 9.55069 6.5 9.7496C6.50193 9.83477 6.51711 9.91911 6.545 9.9996V9.9996Z" fill="#CCCCCC"/>
</svg>
