<svg width="20" height="26" viewBox="0 0 20 26" fill="none" xmlns="http://www.w3.org/2000/svg">
<path d="M6.12903 20.4794L6.12726 20.4777C3.78964 18.19 2.64527 16.3664 2.07698 14.8457C1.50986 13.3281 1.5 12.0735 1.5 10.8565C1.5 6.24879 5.30485 2.5 9.99133 2.5C14.6791 2.5 18.5 6.25003 18.5 10.8565C18.5 12.0735 18.4901 13.3281 17.923 14.8457C17.3547 16.3664 16.2104 18.19 13.8728 20.4777L13.8717 20.4787L9.99205 24.2977L6.12903 20.4794Z" fill="#775650" stroke="#A08984"/>
<path d="M13 7L11 12V15.5H9.49999V11.5H5.49999V17H15V12L13 7ZM6.99999 15.5V12.5C7.05821 12.4224 7.1337 12.3594 7.22049 12.316C7.30727 12.2726 7.40297 12.25 7.49999 12.25C7.59702 12.25 7.69272 12.2726 7.7795 12.316C7.86629 12.3594 7.94178 12.4224 7.99999 12.5V15.5H6.99999ZM12.5 15.5V12.5C12.5582 12.4224 12.6337 12.3594 12.7205 12.316C12.8073 12.2726 12.903 12.25 13 12.25C13.097 12.25 13.1927 12.2726 13.2795 12.316C13.3663 12.3594 13.4418 12.4224 13.5 12.5V15.5H12.5ZM9.99999 9.5C10.0054 9.69496 9.96256 9.88823 9.87534 10.0627C9.78812 10.2371 9.65919 10.3873 9.49999 10.5H5.49999C5.3408 10.3873 5.21187 10.2371 5.12465 10.0627C5.03742 9.88823 4.99461 9.69496 4.99999 9.5C4.99999 8.5 7.49999 7 7.49999 7C7.49999 7 9.99999 8.5 9.99999 9.5Z" fill="#CCCCCC"/>
</svg>
