<svg width="20" height="26" viewBox="0 0 20 26" fill="none" xmlns="http://www.w3.org/2000/svg">
<path d="M6.12903 20.4794L6.12726 20.4777C3.78964 18.19 2.64527 16.3664 2.07698 14.8457C1.50986 13.3281 1.5 12.0735 1.5 10.8565C1.5 6.24879 5.30485 2.5 9.99133 2.5C14.6791 2.5 18.5 6.25003 18.5 10.8565C18.5 12.0735 18.4901 13.3281 17.923 14.8457C17.3547 16.3664 16.2104 18.19 13.8728 20.4777L13.8717 20.4787L9.99205 24.2977L6.12903 20.4794Z" fill="#CF7017" stroke="#DD9B5D"/>
<path d="M14.6667 7V17H13.0667V13H12V10.5C12 8 14.6667 7 14.6667 7ZM9.33333 7V9.5H8.53333V7H7.46667V9.5H6.66667V7H5.6V9.655C5.60013 10.0381 5.75661 10.4066 6.03733 10.685L7.04 11.5C7.09235 11.5481 7.13357 11.6057 7.1611 11.6694C7.18863 11.733 7.20187 11.8013 7.2 11.87V17H8.8V11.87C8.79881 11.801 8.81289 11.7325 8.84135 11.6688C8.8698 11.6051 8.91202 11.5476 8.96533 11.5L9.93066 10.725C10.2308 10.444 10.3996 10.0627 10.4 9.665V7H9.33333Z" fill="#CCCCCC"/>
</svg>
