<svg width="20" height="26" viewBox="0 0 20 26" fill="none" xmlns="http://www.w3.org/2000/svg">
<path d="M6.12903 20.4794L6.12726 20.4777C3.78964 18.19 2.64527 16.3664 2.07698 14.8457C1.50986 13.3281 1.5 12.0735 1.5 10.8565C1.5 6.24879 5.30485 2.5 9.99133 2.5C14.6791 2.5 18.5 6.25003 18.5 10.8565C18.5 12.0735 18.4901 13.3281 17.923 14.8457C17.3547 16.3664 16.2104 18.19 13.8728 20.4777L13.8717 20.4787L9.99205 24.2977L6.12903 20.4794Z" fill="#97215E" stroke="#B6648E"/>
<path d="M12.5 10L12.35 9C12.3131 8.59486 12.1278 8.21764 11.8297 7.94078C11.5316 7.66393 11.1418 7.50695 10.735 7.5H9.265C8.85824 7.50695 8.46838 7.66393 8.1703 7.94078C7.87222 8.21764 7.68692 8.59486 7.65 9L7.525 10H5.665L5.95 15.55C5.96284 15.8065 6.07383 16.0481 6.26 16.225C6.44616 16.4019 6.69322 16.5003 6.95 16.5H13.05C13.3068 16.5003 13.5538 16.4019 13.74 16.225C13.9262 16.0481 14.0372 15.8065 14.05 15.55L14.335 10H12.5ZM8.64 9.1C8.65325 8.94104 8.72405 8.79237 8.83912 8.6819C8.9542 8.57143 9.10563 8.50675 9.265 8.5H10.735C10.8944 8.50675 11.0458 8.57143 11.1609 8.6819C11.2759 8.79237 11.3467 8.94104 11.36 9.1L11.445 9.95C11.452 10.0197 11.4443 10.0902 11.4223 10.1567C11.4003 10.2233 11.3646 10.2845 11.3175 10.3363C11.2703 10.3882 11.2128 10.4296 11.1486 10.4578C11.0845 10.486 11.0151 10.5004 10.945 10.5H9.055C8.98491 10.5004 8.91553 10.486 8.85136 10.4578C8.78719 10.4296 8.72967 10.3882 8.68252 10.3363C8.63537 10.2845 8.59966 10.2233 8.57769 10.1567C8.55572 10.0902 8.54799 10.0197 8.555 9.95L8.64 9.1Z" fill="#CCCCCC"/>
</svg>
