<svg width="20" height="26" viewBox="0 0 20 26" fill="none" xmlns="http://www.w3.org/2000/svg">
<path d="M6.12903 20.4794L6.12726 20.4777C3.78964 18.19 2.64527 16.3664 2.07698 14.8457C1.50986 13.3281 1.5 12.0735 1.5 10.8565C1.5 6.24879 5.30485 2.5 9.99133 2.5C14.6791 2.5 18.5 6.25003 18.5 10.8565C18.5 12.0735 18.4901 13.3281 17.923 14.8457C17.3547 16.3664 16.2104 18.19 13.8728 20.4777L13.8717 20.4787L9.99205 24.2977L6.12903 20.4794Z" fill="#277C5E" stroke="#68A38E"/>
<path d="M14.185 9.04575L14.685 8.17575C14.7486 8.0614 14.7649 7.92668 14.7303 7.80048C14.6957 7.67428 14.613 7.56667 14.5 7.50075L14.065 7.25075C13.9502 7.18556 13.8143 7.16843 13.6869 7.20308C13.5595 7.23774 13.451 7.32138 13.385 7.43575L12.635 8.73575L13.07 8.98075L13.5 9.23075C13.5571 9.2638 13.6201 9.28525 13.6855 9.29384C13.7509 9.30243 13.8173 9.298 13.881 9.28081C13.9447 9.26361 14.0043 9.23399 14.0565 9.19365C14.1087 9.1533 14.1523 9.10304 14.185 9.04575V9.04575ZM13.685 15.9607C13.26 16.2007 13.07 16.1857 12.79 16.0207L9.75001 14.2857L11.5 13.2607L11 11.5557L8.85001 10.3157L9.96501 12.3907L8.66501 13.6657L5.845 12.0507L5.255 12.5757L12.41 16.6657C12.6329 16.795 12.8915 16.8487 13.1474 16.819C13.4033 16.7893 13.6427 16.6776 13.83 16.5007L13.685 15.9607ZM14.245 11.9607L12.945 11.2157L12.9 9.75575L11.215 8.79075C11.139 8.74686 11.0528 8.72376 10.965 8.72376C10.8772 8.72376 10.791 8.74686 10.715 8.79075L9.90501 9.50075L7.30001 8.00075L6.93001 8.65075L13.875 12.6207L14.245 11.9607Z" fill="#CCCCCC"/>
</svg>
