<svg width="20" height="26" viewBox="0 0 20 26" fill="none" xmlns="http://www.w3.org/2000/svg">
<path d="M6.12903 20.4794L6.12726 20.4777C3.78964 18.19 2.64527 16.3664 2.07698 14.8457C1.50986 13.3281 1.5 12.0735 1.5 10.8565C1.5 6.24879 5.30485 2.5 9.99133 2.5C14.6791 2.5 18.5 6.25003 18.5 10.8565C18.5 12.0735 18.4901 13.3281 17.923 14.8457C17.3547 16.3664 16.2104 18.19 13.8728 20.4777L13.8717 20.4787L9.99205 24.2977L6.12903 20.4794Z" fill="#4863A3" stroke="#7F92BF"/>
<path d="M11 15.0004V10.5004H7.5V12.5004H9V15.0004H7V17.0004H12.5V15.0004H11ZM11.35 8.50039C11.35 8.7674 11.2708 9.0284 11.1225 9.25041C10.9741 9.47242 10.7633 9.64545 10.5166 9.74763C10.2699 9.84981 9.9985 9.87654 9.73663 9.82445C9.47475 9.77236 9.23421 9.64379 9.04541 9.45498C8.8566 9.26618 8.72803 9.02564 8.67594 8.76376C8.62385 8.50189 8.65058 8.23045 8.75276 7.98377C8.85494 7.73709 9.02797 7.52625 9.24998 7.37791C9.47199 7.22957 9.733 7.15039 10 7.15039C10.358 7.15039 10.7014 7.29262 10.9546 7.5458C11.2078 7.79897 11.35 8.14235 11.35 8.50039V8.50039Z" fill="#CCCCCC"/>
</svg>
