<svg width="1034" height="625" fill="none" xmlns="http://www.w3.org/2000/svg"><rect width="1034" height="625" rx="40" fill="#fff"/><rect x="54" y="52" width="296" height="339" rx="20" fill="#E5E8F1"/><rect x="447" y="52" width="512" height="48" rx="9" fill="#E0E0E1"/><rect x="447" y="150" width="512" height="48" rx="9" fill="#E0E0E1"/><rect x="447" y="248" width="512" height="48" rx="9" fill="#E0E0E1"/><rect x="447" y="346" width="215" height="48" rx="9" fill="#E0E0E1"/><rect x="447" y="444" width="215" height="48" rx="9" fill="#E0E0E1"/><rect x="54" y="410" width="215" height="30" rx="9" fill="#E0E0E1"/><path d="M74.932 505.289c4.17 0 8.052.997 11.398 2.853l.293.166.185.108v-1.858h9.781v39.933c0 12.108-8.375 20.192-20.69 20.192-10.568 0-18.859-6.133-20.456-15.147l-.046-.274-.394-2.445h9.896l.365 1.669c.921 4.205 4.93 6.973 10.635 6.973 6.582 0 10.742-4.061 10.827-10.757l.002-.211v-2.114h.08v-.088l-.185.109c-3.225 1.856-6.965 2.901-10.991 3.009l-.379.007-.321.002A20.841 20.841 0 0154 526.511c0-12.001 9.075-21.222 20.932-21.222zM169.38 493v13.558h14.107v8.906H169.38v16.677c0 5.292 1.569 7.149 5.823 7.238l.165.002.165.001c1.532 0 3.505-.295 5.379-.785l.329-.088 2.263-.623 1.675 8.841-1.881.529c-3.488.98-5.875 1.35-8.651 1.35-9.699 0-14.942-5.724-15.046-16.148l-.002-.317v-16.677h-9.915v-8.906h9.915V493h9.781zm-43.583 12.606c4.072 0 7.758.939 10.941 2.722l.288.165.083.049v-1.984h9.781v40.858h-9.781v-1.905l-.083.05c-3.069 1.786-6.618 2.774-10.539 2.877l-.368.007-.322.002c-11.87 0-21.416-9.551-21.416-21.46 0-11.843 9.559-21.381 21.416-21.381zm.725 8.986c-6.871 0-12.279 5.548-12.279 12.395 0 6.917 5.397 12.474 12.279 12.474 4.231 0 7.87-1.754 10.524-5.15l.063-.083v-14.403l-.063-.083c-2.603-3.33-6.153-5.082-10.28-5.148l-.244-.002zm83.916-8.986c11.773 0 20.197 8.965 20.287 21.223l-.002.552c-.004.843-.023 1.328-.08 1.871l-.225 1.99h-31.159l.055.184c1.474 4.802 5.437 7.947 10.845 8.108l.229.005.211.002c4.248 0 7.419-1.631 8.789-4.28l.073-.146.584-1.204h10.327l-.972 2.798c-2.504 7.207-9.911 11.738-18.962 11.738-12.396 0-21.496-9.268-21.496-21.46 0-12.125 9.114-21.381 21.496-21.381zm-134.78 8.669c-6.799 0-11.797 5.237-11.797 12.236 0 6.524 5.15 11.92 11.796 11.92 4.453 0 8.395-1.856 11.085-5.369l.066-.089v-13.241l-.066-.088c-2.64-3.448-6.486-5.3-10.838-5.367l-.247-.002zm134.618.238c-5.393 0-9.445 3.203-10.952 8.091l-.063.207h21.244l-.037-.152c-1.249-5.01-4.896-8.068-9.995-8.145l-.197-.001z" fill="#353535"/><path d="M258.103 505.773l.27.002 26.909.001-4.61 9.514h-5.216a19.724 19.724 0 013.036 10.919h.004v18.469c0 11.126-9.158 20.15-20.459 20.15-6.693 0-12.847-3.195-16.656-8.448l-.159-.223 7.95-5.42a10.81 10.81 0 008.865 4.576c5.893 0 10.685-4.661 10.784-10.452l.001-.183v-1.781a20.543 20.543 0 01-10.719 2.991c-11.262 0-20.393-8.98-20.393-20.057 0-11.078 9.131-20.058 20.393-20.058zm48.366 0c11.263 0 20.393 8.98 20.393 20.058 0 11.077-9.13 20.057-20.393 20.057-11.262 0-20.392-8.98-20.392-20.057 0-11.078 9.13-20.058 20.392-20.058zm-48.14 9.517h-.452c-5.816.118-10.493 4.792-10.493 10.541 0 5.823 4.799 10.543 10.719 10.543 5.92 0 10.719-4.72 10.719-10.543 0-5.749-4.677-10.423-10.493-10.541zm48.14-.002c-5.92 0-10.719 4.72-10.719 10.543 0 5.823 4.799 10.543 10.719 10.543 5.92 0 10.719-4.72 10.719-10.543 0-5.823-4.799-10.543-10.719-10.543z" fill="#00A9DE"/><path d="M853.742 343c-36.726 21.273-51.03 136.575 0 160 63.788 29.282 162.368 5.929 81.185-66.9-81.185-72.828-293.156-20.272-184.673 0 86.787 16.218-59.486-23.567-43.754-54.6" stroke="#E0E0E1" stroke-width="12" stroke-linecap="round"/><path d="M201.5 222c27.344 0 50-22.266 50-50 0-27.344-22.656-50-50-50-27.734 0-50 22.656-50 50 0 27.734 22.266 50 50 50zm34.766 12.5h-6.641c-8.594 4.297-17.969 6.25-28.125 6.25-10.156 0-19.922-1.953-28.516-6.25h-6.64c-28.906 0-52.344 23.828-52.344 52.734v16.016c0 10.547 8.203 18.75 18.75 18.75h137.5c10.156 0 18.75-8.203 18.75-18.75v-16.016c0-28.906-23.828-52.734-52.734-52.734z" fill="#949AAA"/></svg>