<?xml version="1.0" encoding="UTF-8"?>
<svg width="509px" height="140px" viewBox="0 0 509 140" version="1.1" xmlns="http://www.w3.org/2000/svg" xmlns:xlink="http://www.w3.org/1999/xlink">
    <title>Gatego Dark Background</title>
    <g id="Brand-Book" stroke="none" stroke-width="1" fill="none" fill-rule="evenodd">
        <g id="Gatego-Dark-Background" transform="translate(0.216048, 0.000000)" fill-rule="nonzero">
            <path d="M38.95,23.25 C46.7108315,23.25 53.9335698,25.1349342 60.1590444,28.6470951 L60.7057513,28.9612079 L61.0495649,29.165 L61.05,25.65 L79.25,25.65 L79.25,101.2 C79.25,124.105667 63.6661847,139.4 40.75,139.4 C21.0843211,139.4 5.65686347,127.797854 2.68548637,110.744296 L2.59926581,110.225859 L1.86645648,105.6 L20.2801908,105.6 L20.9603271,108.757776 C22.6738867,116.713588 30.1349183,121.95 40.75,121.95 C52.9968099,121.95 60.7391892,114.266477 60.8975243,101.597525 L60.9,101.2 L60.9,97.2 L61.0495649,97.2 L61.0495649,97.034 L60.7057513,97.2387921 C54.7042138,100.749988 47.7452368,102.726991 40.2521351,102.932217 L39.5481049,102.946259 L38.95,102.95 C17.1780763,102.95 0,85.2061787 0,63.4 C0,40.6938213 16.8876415,23.25 38.95,23.25 Z M214.7,-1.98951966e-13 L214.699565,25.65 L240.95,25.65 L240.95,42.5 L214.699565,42.5 L214.7,74.05 C214.7,84.0625861 217.620275,87.5752114 225.535202,87.7435905 L225.842089,87.7484242 L226.15,87.75 C229.00035,87.75 232.672311,87.1917633 236.158419,86.2654021 L236.77148,86.0981439 L240.981031,84.9194697 L244.099521,101.645914 L240.598885,102.646096 C234.107898,104.500663 229.66711,105.2 224.5,105.2 C206.451839,105.2 196.696237,94.3720594 196.50293,74.6503479 L196.5,74.05 L196.499565,42.5 L178.05,42.5 L178.05,25.65 L196.499565,25.65 L196.5,-1.98951966e-13 L214.7,-1.98951966e-13 Z M133.6,23.85 C141.176896,23.85 148.03665,25.6248163 153.958623,28.9992449 L154.494395,29.3104129 L154.649565,29.404 L154.65,25.65 L172.85,25.65 L172.85,102.95 L154.65,102.95 L154.649565,99.345 L154.494395,99.4395871 C148.78509,102.81869 142.180777,104.686979 134.884994,104.882831 L134.198994,104.896287 L133.6,104.9 C111.512254,104.9 93.75,86.8297305 93.75,64.3 C93.75,41.8945735 111.537528,23.85 133.6,23.85 Z M134.95,40.85 C122.163113,40.85 112.1,51.3455119 112.1,64.3 C112.1,77.3851073 122.144077,87.9 134.95,87.9 C142.823237,87.9 149.594565,84.5808858 154.531553,78.1568411 L154.649565,77.999 L154.649565,50.75 L154.531553,50.5931589 C149.689507,44.2926535 143.082994,40.9788065 135.402997,40.8536809 L134.95,40.85 Z M291.1,23.85 C313.008111,23.85 328.683275,40.8108242 328.85,64 L328.847596,65.0446631 C328.838976,66.6396758 328.804245,67.5567909 328.697795,68.5844803 L328.280171,72.35 L270.298565,72.35 L270.401691,72.6970812 C273.144462,81.7825161 280.517449,87.7319435 290.581392,88.0376314 L291.008225,88.0471821 L291.4,88.05 C299.304719,88.05 305.206292,84.9651864 307.754421,79.9524109 L307.890076,79.6770817 L308.976865,77.4 L328.194254,77.4 L326.385042,82.6936219 C321.725351,96.3275327 307.943097,104.9 291.1,104.9 C268.034768,104.9 251.1,87.3657712 251.1,64.3 C251.1,41.3598687 268.059559,23.85 291.1,23.85 Z M40.3,40.25 C27.6498694,40.25 18.35,50.1572078 18.35,63.4 C18.35,75.7427922 27.9314786,85.95 40.3,85.95 C48.5856809,85.95 55.9218279,82.4389083 60.926822,75.7921325 L61.0495649,75.625 L61.0495649,50.574 L60.926822,50.4078675 C56.0145129,43.8841801 48.8565907,40.3811158 40.7593299,40.2536099 L40.3,40.25 Z M290.8,40.7 C280.763972,40.7 273.224888,46.759186 270.418865,56.007915 L270.302565,56.4 L309.832565,56.4 L309.765369,56.1124402 C307.441343,46.6329478 300.654757,40.8477317 291.16627,40.7027894 L290.8,40.7 Z" id="gate" fill="#FFFFFF"></path>
            <path d="M379.796565,24.1656489 C379.96409,24.1656489 380.131361,24.1667344 380.298373,24.1688989 L430.371565,24.1699207 L421.792708,42.1699207 L412.08681,42.1702805 C415.673088,47.9649027 417.74313,54.7968161 417.74313,62.1122137 C417.74313,62.3512947 417.740919,62.5898593 417.736516,62.8278881 L417.74313,62.8278626 L417.74313,97.7685332 C417.74313,118.818808 400.702852,135.890042 379.674427,135.890042 C367.219422,135.890042 355.768821,129.846682 348.68069,119.907763 L348.383797,119.485497 L363.177663,109.231643 C366.913572,114.621669 373.012738,117.890042 379.674427,117.890042 C390.638989,117.890042 399.555638,109.071617 399.740212,98.1152273 L399.74313,97.7685332 L399.743385,94.3994343 C393.947717,97.9875725 387.114019,100.058779 379.796565,100.058779 C358.839256,100.058779 341.85,83.0695228 341.85,62.1122137 C341.85,41.1549046 358.839256,24.1656489 379.796565,24.1656489 Z M469.796565,24.1656489 C490.753874,24.1656489 507.74313,41.1549046 507.74313,62.1122137 C507.74313,83.0695228 490.753874,100.058779 469.796565,100.058779 C448.839256,100.058779 431.85,83.0695228 431.85,62.1122137 C431.85,41.1549046 448.839256,24.1656489 469.796565,24.1656489 Z M380.216294,42.1699773 L379.376836,42.1699773 C368.554435,42.3933809 359.85,51.2362825 359.85,62.1122137 C359.85,73.1283973 368.780381,82.0587786 379.796565,82.0587786 C390.812748,82.0587786 399.74313,73.1283973 399.74313,62.1122137 C399.74313,51.2362825 391.038695,42.3933809 380.216294,42.1699773 Z M469.796565,42.1656489 C458.780381,42.1656489 449.85,51.0960301 449.85,62.1122137 C449.85,73.1283973 458.780381,82.0587786 469.796565,82.0587786 C480.812748,82.0587786 489.74313,73.1283973 489.74313,62.1122137 C489.74313,51.0960301 480.812748,42.1656489 469.796565,42.1656489 Z" id="Combined-Shape" fill="#00A9DE"></path>
        </g>
    </g>
</svg>