<svg width="28" height="34" viewBox="0 0 28 34" fill="none" xmlns="http://www.w3.org/2000/svg">
<g id="speed_limit_usa">
<rect width="28" height="34" fill="white" fill-opacity="0.01"/>
<g id="non-stretchable_items">
<g id="_Elements / Background">
<rect id="Background" x="2.7" y="2.7" width="22.6" height="22.6" rx="1.3" fill="white" stroke="#333333" stroke-width="1.4"/>
</g>
<path id="TRUCK" d="M7.64209 6.2495H6.50459V10H5.54909V6.2495H4.35309V5.502H7.74609L7.64209 6.2495ZM9.67775 8.2385H9.19025V10H8.23475V5.502H9.63875C10.2411 5.502 10.6939 5.61467 10.9973 5.84C11.3006 6.061 11.4523 6.39683 11.4523 6.8475C11.4523 7.14217 11.3786 7.38483 11.2313 7.5755C11.0883 7.76617 10.8651 7.92867 10.5618 8.063L11.7253 10H10.6398L9.67775 8.2385ZM9.19025 7.5625H9.69075C9.94642 7.5625 10.1393 7.50617 10.2693 7.3935C10.3993 7.2765 10.4643 7.0945 10.4643 6.8475C10.4643 6.61783 10.3949 6.451 10.2563 6.347C10.1219 6.23867 9.90959 6.1845 9.61925 6.1845H9.19025V7.5625ZM15.5371 8.518C15.5371 8.82567 15.4721 9.09867 15.3421 9.337C15.2121 9.57533 15.0171 9.76383 14.7571 9.9025C14.5015 10.0368 14.1895 10.104 13.8211 10.104C13.2665 10.104 12.8418 9.961 12.5471 9.675C12.2568 9.38467 12.1116 8.999 12.1116 8.518V5.502H13.0671V8.4725C13.0671 8.77583 13.1278 9.00333 13.2491 9.155C13.3705 9.30233 13.5611 9.376 13.8211 9.376C14.0811 9.376 14.2718 9.30233 14.3931 9.155C14.5188 9.00333 14.5816 8.77583 14.5816 8.4725V5.502H15.5371V8.518ZM18.2041 5.398C18.4857 5.398 18.7306 5.43917 18.9386 5.5215C19.1466 5.5995 19.3502 5.72083 19.5496 5.8855L19.0751 6.438C18.8151 6.22567 18.5421 6.1195 18.2561 6.1195C17.9354 6.1195 17.6797 6.25167 17.4891 6.516C17.3027 6.776 17.2096 7.1855 17.2096 7.7445C17.2096 8.2905 17.3027 8.69567 17.4891 8.96C17.6797 9.22 17.9376 9.35 18.2626 9.35C18.4316 9.35 18.5854 9.31967 18.7241 9.259C18.8627 9.194 19.0079 9.103 19.1596 8.986L19.6016 9.5385C19.4412 9.70317 19.2419 9.83967 19.0036 9.948C18.7696 10.052 18.5096 10.104 18.2236 10.104C17.8206 10.104 17.4674 10.013 17.1641 9.831C16.8607 9.649 16.6246 9.3825 16.4556 9.0315C16.2866 8.67617 16.2021 8.24717 16.2021 7.7445C16.2021 7.25483 16.2887 6.8345 16.4621 6.4835C16.6354 6.12817 16.8737 5.8595 17.1771 5.6775C17.4804 5.49117 17.8227 5.398 18.2041 5.398ZM21.0985 10H20.143V5.502H21.0985V10ZM22.1515 7.53L23.77 10H22.652L21.1375 7.6015L22.6325 5.502H23.653L22.1515 7.53Z" fill="#333333"/>
</g>
</g>
</svg>
